<svg xmlns="http://www.w3.org/2000/svg" width="2e3" height="257" viewBox="0 0 2e3 257">
    <g transform="matrix(1,0,0,1,-1.2121212121212466,0.7378979406535677)">
        <svg viewBox="0 0 396 51" data-background-color="#ffa458" height="257" width="2e3"
             xmlns="http://www.w3.org/2000/svg">
            <g id="tight-bounds" transform="matrix(1,0,0,1,0.2400000000000091,-0.14643101071328601)">
                <svg viewBox="0 0 395.52 51.29285632974925" height="51.29285632974925" width="395.52">
                    <g>
                        <svg viewBox="0 0 531.6271323312126 68.94385649186256" height="51.29285632974925"
                             width="395.52">
                            <g>
                                <rect width="4.4988626110680645" height="50.13645135623869" x="119.8311424660397"
                                      y="9.403702567811937" fill="#fff" opacity="1" stroke-width="0"
                                      stroke="transparent" fill-opacity="1" class="rect-o-0"
                                      data-fill-palette-color="primary" rx="1%" id="o-0" data-palette-color="#ffffff"/>
                            </g>
                            <g transform="matrix(1,0,0,1,136.10713233121263,9.528420108499095)">
                                <svg viewBox="0 0 395.52 49.88701627486437" height="49.88701627486437" width="395.52">
                                    <g>
                                        <svg viewBox="0 0 395.52 49.88701627486437" height="49.88701627486437"
                                             width="395.52">
                                            <g>
                                                <svg viewBox="0 0 395.52 49.88701627486437" height="49.88701627486437"
                                                     width="395.52">
                                                    <g transform="matrix(1,0,0,1,0,0)">
                                                        <svg width="395.52"
                                                             viewBox="2.5900001525878906 -31.610000610351562 254.23001098632812 32.06999969482422"
                                                             height="49.88701627486437" data-palette-color="#ffffff">
                                                            <g class="undefined-text-0"
                                                               data-fill-palette-color="primary" id="text-0">
                                                                <path d="M2.59-15.52q0-2.99.86-6.03.86-3.05 2.64-5.23 3.8-4.83 10.81-4.83 4.02.0 7.81 1.78Q25.69-29.43 25.69-28.51q0 1.73-1.38 1.79Q24.02-26.72 23.79-26.78q-3.96-1.38-6.29-1.38-2.33.0-3.88.52Q12.07-27.13 10.92-26.21 9.77-25.29 8.97-24.08 8.16-22.87 7.7-21.38q-.98 2.76-.98 5.86.0 5.06 2.25 8.51 2.64 4.08 8.16 4.08 3.79.0 7.24-2.01Q24.83-5.06 25.26-5.06 25.69-5.06 26.06-4.66 26.44-4.25 26.44-3.62T25.98-2.44Q25.52-1.9 24.74-1.47q-.77.44-1.72.78Q22.07-.34 21.03-.11 18.85.46 16.9.46 9.83.46 6.09-4.31q-3.5-4.31-3.5-11.21zm46.6-12.41L59.77-2.41Q59.83-2.07 59.83-1.72q0 .34-.18.69Q59.48-.69 59.19-.52 58.62.0 57.93.0q-1.38.0-1.84-1.21L53.27-8.16H37.76L35-1.21Q34.6.0 33.39.0T31.55-1.03Q31.38-1.38 31.38-1.67 31.38-1.95 31.55-2.41l10.4-25.52q1.15-2.87 2.65-3.28Q45-31.26 45.63-31.38q1.15.0 1.72.52Q48.27-30.17 49.19-27.93zM45.51-28.1 38.85-11.21H52.24L45.51-28.1zM82.35-5.06H82.41l10.4-22.99Q93.73-30 94.19-30.52 95.17-31.38 96.17-31.38 97.18-31.38 97.72-31.15 98.27-30.92 98.67-30.52 99.65-29.54 99.65-27.93V-1.72Q99.65-.86 99.1-.43 98.56.0 97.87.0T96.66-.43Q96.14-.86 96.14-1.72V-27.47L84.77-2.41Q84.08-.69 82.35-.69 80.86-.69 80-2.41L68.67-27.36V-1.72Q68.67-.86 68.13-.43 67.58.0 66.89.0T65.66-.43Q65.11-.86 65.11-1.72V-27.93q0-2.53 1.84-3.22Q67.58-31.26 68.24-31.32 68.9-31.38 69.45-31.21 70-31.03 70.4-30.69 71.09-30.11 72.12-28.05L82.35-5.06zm35.4-8.62h-5.8V-1.9q0 1.38-1.27 1.79Q110.34.0 109.82.0 109.3.0 108.7-.46 108.1-.92 108.1-1.9V-29.43q0-1.14 1.2-1.78Q109.65-31.38 110.11-31.38h7.81q9.77.0 11.9 5.98Q130.34-24.02 130.34-22.47 130.34-20.92 129.88-19.6T128.56-17.24Q127.69-16.21 126.49-15.57 125.28-14.94 123.9-14.48 121.2-13.68 117.75-13.68zm-5.8-3.1h6.49Q122.18-16.78 123.96-18.05 126.31-19.54 126.31-22.59 126.31-25.52 123.96-27.01 122.18-28.16 118.5-28.28h-6.55v11.5zM154.99.0h-16.9Q137.4.0 136.94-.46 136.14-1.15 136.14-1.9V-29.43Q136.14-30.52 137.29-31.15 137.63-31.26 137.98-31.38h16.38Q155.22-31.38 155.62-30.86T156.02-29.74Q156.02-29.14 155.56-28.62T154.36-28.1H139.93v10.4h13.74Q154.53-17.7 154.93-17.21 155.33-16.72 155.33-16.09 155.33-15.52 154.88-15.06 154.42-14.6 153.67-14.6H139.93V-3.22h15.06Q155.79-3.22 156.2-2.7 156.6-2.18 156.6-1.55 156.6-.92 156.17-.46 155.74.0 154.99.0zM163.61-1.9V-29.43Q163.61-30.57 164.87-31.21 165.22-31.38 165.62-31.38H174.99Q182.57-31.38 185.22-27.36 186.14-25.69 186.14-23.13 186.14-20.57 184.47-18.79 182.8-17.01 179.7-16.38V-16.21Q182.69-15.69 183.95-13.97 184.93-12.53 185.19-10.11 185.45-7.7 185.62-6.32 185.79-4.31 185.96-1.9 185.96-.92 185.36-.46 184.76.0 184.01.0T182.69-.43Q182.11-.86 182-1.72 181.77-4.37 181.6-6.41 181.42-8.45 181.19-9.86 180.96-11.26 180.56-12.18t-1.09-1.44Q178.32-14.48 174.93-14.6h-7.41V-1.9Q167.52-.52 166.31-.11 165.96.0 165.42.0 164.87.0 164.24-.46T163.61-1.9zm3.91-15.69H173.26Q178.72-17.59 180.62-19.31 182-20.52 182.11-22.93 182.11-26.32 179.59-27.41 178.21-28.1 176.83-28.19 175.45-28.28 174.64-28.28H167.52v10.69zM197.2-20.2Q196.65-17.82 196.65-15.55 196.65-13.28 197.2-10.86 197.74-8.45 199.07-6.64 200.39-4.83 202.34-3.74 204.3-2.64 207.11-2.64 209.93-2.64 211.94-3.74 213.95-4.83 215.21-6.64 216.48-8.45 217.08-10.86 217.69-13.28 217.69-15.55T217.08-20.2Q216.48-22.59 215.21-24.4 213.95-26.21 211.94-27.3T207.11-28.39Q204.3-28.39 202.34-27.3 200.39-26.21 199.07-24.4 197.74-22.59 197.2-20.2zM192.34-15.63Q192.34-18.97 193.32-21.95 194.3-24.94 196.25-27.07q3.91-4.48 10.8-4.54Q214.07-31.61 218.03-27.07 219.93-24.94 220.88-21.95 221.82-18.97 221.82-15.63 221.82-12.24 220.88-9.17 219.93-6.09 218.03-4.02 214.07.46 207.05.46 200.1.46 196.25-4.02 194.3-6.21 193.32-9.22 192.34-12.24 192.34-15.63zM232.2-20.2Q231.65-17.82 231.65-15.55 231.65-13.28 232.2-10.86 232.74-8.45 234.06-6.64t3.28 2.9Q239.29-2.64 242.11-2.64 244.93-2.64 246.94-3.74 248.95-4.83 250.21-6.64 251.48-8.45 252.08-10.86 252.68-13.28 252.68-15.55T252.08-20.2Q251.48-22.59 250.21-24.4 248.95-26.21 246.94-27.3T242.11-28.39Q239.29-28.39 237.34-27.3 235.38-26.21 234.06-24.4 232.74-22.59 232.2-20.2zM227.34-15.63Q227.34-18.97 228.32-21.95 229.29-24.94 231.25-27.07 235.15-31.55 242.05-31.61 249.06-31.61 253.03-27.07 254.93-24.94 255.87-21.95 256.82-18.97 256.82-15.63 256.82-12.24 255.87-9.17 254.93-6.09 253.03-4.02 249.06.46 242.05.46 235.1.46 231.25-4.02 229.29-6.21 228.32-9.22 227.34-12.24 227.34-15.63z"
                                                                      fill="#fff" data-fill-palette-color="primary"/>
                                                            </g>
                                                        </svg>
                                                    </g>
                                                </svg>
                                            </g>
                                        </svg>
                                    </g>
                                </svg>
                            </g>
                            <g>
                                <svg viewBox="0 0 108.05401521193481 68.94385649186256" height="68.94385649186256"
                                     width="108.05401521193481">
                                    <g>
                                        <svg xmlns="http://www.w3.org/2000/svg"
                                             viewBox="0 18.097000122070312 100 63.80499267578125"
                                             height="68.94385649186256" width="108.05401521193481" class="icon-icon-0"
                                             data-fill-palette-color="accent" id="icon-0">
                                            <g fill="#fff" data-fill-palette-color="accent">
                                                <path fill-rule="evenodd" clip-rule="evenodd"
                                                      d="M49.649 62.335c5.398.0 9.779 4.379 9.779 9.783.0 5.405-4.381 9.784-9.779 9.784-5.401.0-9.776-4.379-9.776-9.784C39.873 66.714 44.248 62.335 49.649 62.335zm0 5.222c-2.519.0-4.558 2.04-4.558 4.562.0 2.521 2.039 4.56 4.558 4.56 2.516.0 4.557-2.039 4.557-4.56C54.206 69.597 52.165 67.557 49.649 67.557z"
                                                      fill="#fff" data-fill-palette-color="accent"/>
                                                <path fill-rule="evenodd" clip-rule="evenodd"
                                                      d="M3.033 65.994H.806C.363 65.994.0 66.355.0 66.798v5.717c0 .445.363.805.806.805h17.912v-4.192H4.644c-.443.0-.804-.365-.804-.807v-1.522C3.839 66.355 3.478 65.994 3.033 65.994z"
                                                      fill="#fff" data-fill-palette-color="accent"/>
                                                <path fill-rule="evenodd" clip-rule="evenodd"
                                                      d="M87.387 32.76l-.002.003c-.193-.193-.46-.314-.749-.314h-15.19c-.294.0-.561.121-.751.314-.195.192-.314.459-.314.751V73.12h17.318V33.514c0-.294-.119-.561-.31-.751L87.387 32.76zM85.255 48.411c0 .493-.404.897-.899.897H73.721c-.495.0-.896-.404-.896-.897V35.622c0-.493.404-.897.896-.897h10.635c.493.0.899.404.899.897V48.411z"
                                                      fill="#fff" data-fill-palette-color="accent"/>
                                                <path fill-rule="evenodd" clip-rule="evenodd"
                                                      d="M78.438 18.097c-9.051.005-19.52.005-29.865.005C26.15 18.104 7.869 36.401 7.869 58.834v12.341c0 4.131 3.369 7.506 7.498 7.506h23.322c-1.151-1.919-1.81-4.165-1.81-6.563.0-7.057 5.717-12.779 12.77-12.779 7.052.0 12.769 5.723 12.769 12.779.0 2.397-.66 4.644-1.81 6.563 24.839.0 15.435.0 31.89.0 4.133.0 7.502-3.373 7.502-7.506.0-10.502.0-21.002.0-31.502C1e2 27.789 90.313 18.097 78.438 18.097zM62.418 47.294c0 1.11-.902 2.014-2.009 2.014H21.911c-6.939.0 5.107-18.609 10.119-18.609h28.38c1.106.0 2.009.902 2.009 2.011V47.294zm27.17 26.772c0 .521-.422.944-.945.944H69.432c-.517.0-.941-.423-.941-.944V33.514c0-.815.334-1.554.868-2.089.533-.536 1.274-.868 2.087-.868h15.19c.811.0 1.549.332 2.085.868l-.002.002c.537.537.869 1.274.869 2.087V74.066z"
                                                      fill="#fff" data-fill-palette-color="accent"/>
                                            </g>
                                        </svg>
                                    </g>
                                </svg>
                            </g>
                        </svg>
                    </g>
                    <defs/>
                </svg>
                <rect width="395.52" height="51.29285632974925" fill="none" stroke="none" visibility="hidden"/>
            </g>
        </svg>
    </g>
</svg>
